# Blender v2.93.1 OBJ File: 'poker card heart.blend'
# www.blender.org
mtllib poker card heart.mtl
o Card_Plane
v -0.022739 -0.000240 0.044450
v -0.028000 -0.000240 0.039189
v -0.025370 -0.000240 0.043745
v -0.027295 -0.000240 0.041820
v 0.028000 -0.000240 0.039189
v 0.022739 -0.000240 0.044450
v 0.027295 -0.000240 0.041820
v 0.025370 -0.000240 0.043745
v -0.022739 -0.000240 -0.044450
v -0.028000 -0.000240 -0.039189
v -0.025370 -0.000240 -0.043745
v -0.027295 -0.000240 -0.041820
v 0.022739 -0.000240 -0.044450
v 0.028000 -0.000240 -0.039189
v 0.025370 -0.000240 -0.043745
v 0.027295 -0.000240 -0.041820
v -0.022739 0.000000 0.044450
v -0.028000 0.000000 0.039189
v -0.025370 0.000000 0.043745
v -0.027295 0.000000 0.041820
v 0.028000 0.000000 0.039189
v 0.022739 0.000000 0.044450
v 0.027295 0.000000 0.041820
v 0.025370 0.000000 0.043745
v -0.022739 0.000000 -0.044450
v -0.028000 0.000000 -0.039189
v -0.025370 0.000000 -0.043745
v -0.027295 0.000000 -0.041820
v 0.022739 0.000000 -0.044450
v 0.028000 0.000000 -0.039189
v 0.025370 0.000000 -0.043745
v 0.027295 0.000000 -0.041820
vt 0.959184 0.921591
vt 0.542072 0.921591
vt 0.517946 0.915126
vt 0.500285 0.897465
vt 0.493821 0.873340
vt 0.493821 0.154479
vt 0.500285 0.130353
vt 0.517946 0.112692
vt 0.542072 0.106227
vt 0.959184 0.106228
vt 0.983310 0.112692
vt 1.000971 0.130353
vt 1.007436 0.154479
vt 1.007436 0.873340
vt 1.000971 0.897465
vt 0.983310 0.915126
vt 1.003497 0.508121
vt 1.003497 0.152432
vt 1.005664 0.152432
vt 1.005664 0.508121
vt 1.003497 0.525512
vt 1.005664 0.525512
vt 0.012586 0.029589
vt 0.046972 0.007928
vt 0.046972 0.007928
vt 0.012586 0.029589
vt 1.005664 0.525512
vt 1.005664 0.550105
vt 1.003497 0.550105
vt 1.003497 0.525512
vt 0.000000 0.940822
vt 0.000000 0.059177
vt 0.000000 0.059177
vt 0.000000 0.940822
vt 0.012586 0.970411
vt 0.012586 0.970411
vt 0.046972 0.992072
vt 0.046972 0.992072
vt 0.093944 1.000000
vt 0.093944 1.000000
vt 0.906056 1.000000
vt 0.906056 1.000000
vt 0.953028 0.992072
vt 0.953028 0.992072
vt 0.987414 0.970411
vt 0.987414 0.970411
vt 1.000000 0.940823
vt 1.000000 0.940823
vt 1.000000 0.059178
vt 1.000000 0.059178
vt 0.987414 0.029589
vt 0.987414 0.029589
vt 1.003497 0.128677
vt 1.003497 0.104921
vt 1.005664 0.104921
vt 1.005664 0.128677
vt 0.140114 0.037815
vt 0.095984 0.045263
vt 0.063679 0.065613
vt 0.051854 0.093411
vt 0.051854 0.921708
vt 0.063679 0.949506
vt 0.095984 0.969856
vt 0.140114 0.977304
vt 0.903084 0.977304
vt 0.947214 0.969856
vt 0.979519 0.949506
vt 0.991343 0.921708
vt 0.991343 0.093411
vt 0.979519 0.065613
vt 0.947214 0.045263
vt 0.903084 0.037815
vn 0.0000 1.0000 0.0000
vn 0.0000 0.0000 1.0000
vn -0.2588 0.0000 0.9659
vn -0.7071 0.0000 0.7071
vn -0.9659 0.0000 0.2588
vn -1.0000 0.0000 0.0000
vn -0.9659 0.0000 -0.2588
vn -0.7071 0.0000 -0.7071
vn -0.2588 0.0000 -0.9659
vn 0.0000 0.0000 -1.0000
vn 0.2588 0.0000 -0.9659
vn 0.7071 0.0000 -0.7071
vn 0.9659 0.0000 -0.2588
vn 1.0000 0.0000 0.0000
vn 0.9659 0.0000 0.2588
vn 0.7071 0.0000 0.7071
vn 0.2588 0.0000 0.9659
vn 0.0000 -1.0000 -0.0000
usemtl card_front
s off
f 17/1/1 22/2/1 24/3/1 23/4/1 21/5/1 30/6/1 32/7/1 31/8/1 29/9/1 25/10/1 27/11/1 28/12/1 26/13/1 18/14/1 20/15/1 19/16/1
f 1/17/2 6/18/2 22/19/2 17/20/2
f 3/21/3 1/17/3 17/20/3 19/22/3
f 4/23/4 3/24/4 19/25/4 20/26/4
f 2/27/5 4/28/5 20/29/5 18/30/5
f 10/31/6 2/32/6 18/33/6 26/34/6
f 12/35/7 10/31/7 26/34/7 28/36/7
f 11/37/8 12/35/8 28/36/8 27/38/8
f 9/39/9 11/37/9 27/38/9 25/40/9
f 13/41/10 9/39/10 25/40/10 29/42/10
f 15/43/11 13/41/11 29/42/11 31/44/11
f 16/45/12 15/43/12 31/44/12 32/46/12
f 14/47/13 16/45/13 32/46/13 30/48/13
f 5/49/14 14/47/14 30/48/14 21/50/14
f 7/51/15 5/49/15 21/50/15 23/52/15
f 8/53/16 7/54/16 23/55/16 24/56/16
f 6/18/17 8/53/17 24/56/17 22/19/17
usemtl card_back
f 1/57/18 3/58/18 4/59/18 2/60/18 10/61/18 12/62/18 11/63/18 9/64/18 13/65/18 15/66/18 16/67/18 14/68/18 5/69/18 7/70/18 8/71/18 6/72/18
